<svg height="512" viewBox="0 0 64 64" width="512" xmlns="http://www.w3.org/2000/svg"><g id="Glyph"><path d="m22.989 40.876 3.011 1.506v-3.514z"/><path d="m54 34.586 1.586-1.586-1.586-1.586z"/><path d="m4 41v17h4v-20h-1a3 3 0 0 0 -3 3z"/><path d="m56.707 28.707-1.293 1.293 2.293 2.293a1 1 0 0 1 .293.707v10a4 4 0 0 1 -4 4 9.01 9.01 0 0 0 -9 9v2h2v-2a7.009 7.009 0 0 1 7-7 6.006 6.006 0 0 0 6-6v-13a1.893 1.893 0 0 0 -.707-1.293 1.714 1.714 0 0 0 -2.586 0z"/><path d="m50 33.414v5.172l2-2v-5.172z"/><path d="m21 50.447 9-4.091v-8.356h-2v6a1 1 0 0 1 -1.447.9l-5.553-2.782z"/><path d="m41 42.414-2.293 2.293a1 1 0 0 1 -1.414 0l-5.293-5.293v5.172l6 6 5.586-5.586z"/><path d="m30 48.553-9 4.091v5.356h9z"/><path d="m10 46.356 9 4.091v-8.329l-5.553 2.782a1 1 0 0 1 -1.447-.9v-6h-2z"/><path d="m20.697 40 3-2h-7.394l3 2z"/><path d="m14 38.868v3.514l3.011-1.506z"/><path d="m48 35.414-1.586 1.586 1.586 1.586z"/><path d="m47.586 41-3.293-3.293a1 1 0 0 1 0-1.414l1.293-1.293h-.586a3 3 0 0 0 -3 3v2.586l3 3z"/><path d="m19 52.644-9-4.091v9.447h9z"/><path d="m7 26a3.006 3.006 0 0 0 2 2.829v-5.658a3.006 3.006 0 0 0 -2 2.829z"/><circle cx="20" cy="12" r="1"/><path d="m20 34a3 3 0 0 0 3-3h-6a3 3 0 0 0 3 3z"/><path d="m28.719 13-.689-2.758c-.697-3.135-3.571-4.242-6.03-4.242h-4c-2.459 0-5.333 1.107-6.023 4.217l-.697 2.783h5.9a2.966 2.966 0 0 1 -.18-1 3 3 0 0 1 6 0 2.966 2.966 0 0 1 -.184 1z"/><path d="m11 36h9a5.006 5.006 0 0 1 -5-5v-1a1 1 0 0 1 1-1h8a1 1 0 0 1 1 1v1a5.006 5.006 0 0 1 -5 5h9v-17h-18zm13-15h2v2h-2zm-5 2h2v4h-2zm-5-2h2v2h-2z"/><path d="m5 16a1 1 0 0 1 .2.02l4.9.98h19.8l4.9-.98a1 1 0 0 1 .2-.02 1 1 0 0 0 .082-2l-4.882.98a1 1 0 0 1 -.2.02h-20a1 1 0 0 1 -.2-.02l-4.882-.98a1 1 0 0 0 .082 2z"/><path d="m33 26a3.006 3.006 0 0 0 -2-2.829v5.658a3.006 3.006 0 0 0 2-2.829z"/></g></svg>